<svg version="1.2" xmlns="http://www.w3.org/2000/svg" viewBox="0 0 1080 1080" width="500" height="500">
	<title>Novo Projeto</title>
	<style>
		.s0 { fill: #000000 } 
	</style>
	<path id="Q" fill-rule="evenodd" class="s0" d="m367.87 799.83q13.43-18.55 31.98-30.7 19.19-12.15 74.19-37.73-92.74-19.19-143.26-91.46-50.52-72.27-50.52-161.8 0-73.55 31.97-136.22 32.62-62.68 91.46-100.41 59.47-38.37 132.38-38.37 62.68 0 112.56 22.38 49.88 22.39 80.58 60.12 30.7 37.09 46.69 83.14 16.62 45.41 16.62 95.29 0 115.12-72.26 194.42-72.27 79.3-184.19 79.3-5.76 0-12.15 1.92-6.4 1.28-10.23 3.2-3.2 1.28-10.88 4.47-7.03 3.2-8.95 4.48 15.99 3.2 39.01 12.79l112.56 47.33q37.09 15.99 72.27 15.99 31.98 0 61.39-20.47 8.96 4.48 19.83 17.27-39.65 50.52-110.64 50.52-31.98 0-67.79-14.71l-113.2-54.36q-31.34-12.79-52.44-12.79-33.26 0-67.15 24.3-12.15-6.39-19.83-17.9zm167.56-97.21q60.12 0 101.69-34.54 42.21-35.17 60.11-88.25 18.55-53.09 18.55-118.32 0-62.03-18.55-110.64-17.9-49.24-59.47-80.58-41.57-31.98-102.33-31.98-87.62 0-133.02 63.96-45.41 63.95-45.41 159.88 0 65.87 17.91 118.95 17.9 52.45 59.47 86.98 41.57 34.54 101.05 34.54z"/>
	<path id="Forma 1" fill-rule="evenodd" class="s0" d="m819.05 756.03c-25 0-45.22-20.21-45.22-45.22 0-25 20.22-45.22 45.22-45.22 25.01 0 45.23 20.22 45.23 45.22 0 25.01-20.22 45.22-45.23 45.22z"/>
</svg>