<svg version="1.2" xmlns="http://www.w3.org/2000/svg" viewBox="0 0 830 127" width="830" height="127">
	<title>Forma 1</title>
	<style>
		.s0 { fill: #ffffff } 
	</style>
	<path id="Quiet Planner" fill-rule="evenodd" class="s0" d="m16.69 112.04q2.52-3.48 6-5.76 3.6-2.28 13.92-7.08-17.4-3.6-26.88-17.17-9.49-13.56-9.49-30.36 0-13.81 6-25.57 6.13-11.77 17.17-18.85 11.16-7.2 24.85-7.2 11.76 0 21.12 4.2 9.37 4.2 15.13 11.28 5.76 6.97 8.76 15.61 3.12 8.52 3.12 17.88 0 21.61-13.56 36.5-13.57 14.88-34.57 14.88-1.08 0-2.28 0.36-1.2 0.24-1.92 0.6-0.6 0.24-2.04 0.84-1.33 0.6-1.69 0.84 3.01 0.6 7.33 2.4l21.12 8.89q6.97 3 13.57 3 6 0 11.52-3.85 1.68 0.85 3.72 3.25-7.44 9.48-20.76 9.48-6.01 0-12.73-2.76l-21.24-10.21q-5.89-2.4-9.85-2.4-6.24 0-12.6 4.57-2.28-1.2-3.72-3.37zm31.45-18.24q11.28 0 19.08-6.48 7.93-6.61 11.29-16.57 3.48-9.96 3.48-22.21 0-11.64-3.48-20.76-3.36-9.25-11.17-15.13-7.8-6-19.2-6-16.45 0-24.97 12-8.52 12.01-8.52 30.01 0 12.37 3.36 22.33 3.36 9.84 11.16 16.33 7.8 6.48 18.97 6.48zm116.8-59.9v47.05q0 8.05 0.36 11.29l9.48 1.2q0.36 1.92 0 4.56-8.76 0.36-18.24 1.68-0.84-0.84-1.2-2.28l-0.6-10.68q-5.05 6.48-10.45 10.08-5.28 3.6-12.48 3.6-7.32 0-12.36-3.72-4.93-3.72-4.93-12.72v-26.65q0-13.69-0.36-17.53l-9.48-1.2q-0.48-1.8 0-4.56 8.28-0.6 20.65-2.52 1.08 1.2 1.2 2.4-0.6 3.12-0.6 44.05 0 8.41 1.92 12.01 2.04 3.48 7.44 3.48 10.08 0 18.25-12.01v-24.24q0-13.57-0.36-17.41l-9.49-1.2q-0.48-1.8 0-4.56 7.21-0.48 20.05-2.52 1.08 1.2 1.2 2.4zm36.03 19.45v38.53l9.72 1.8q0.12 0.6 0.12 1.08 0.12 0.48 0.12 1.08 0 0.6-0.12 1.32 0 0.6-0.12 1.32-7.56-0.36-15.48-0.36-2.76 0-6.73 0.12-3.84 0-8.88 0.12-0.36-1.08-0.36-2.28 0-1.08 0.36-2.4l9.48-1.32q0.24-3.36 0.36-7.08 0.12-3.85 0.12-8.17v-25.56q0-7.93-0.36-11.77l-9.48-1.2q-0.24-0.6-0.24-2.04 0-0.6 0-1.2 0-0.6 0.24-1.32 8.16-0.48 20.65-2.52 1.08 1.2 1.2 2.4-0.6 3.36-0.6 19.45zm-17.53-42.86q-0.24-0.6-0.24-1.2 0-0.72 0-1.32 0-3.24 2.64-5.16 2.76-2.04 6.73-2.04 3.72 0 6 2.28 2.4 2.16 2.4 6 0 3.12-2.76 5.04-2.64 1.92-6.85 1.92-2.88 0-5.16-1.44-2.16-1.44-2.76-4.08zm85.9 53.66h-37.69q-1.08 30.61 18.36 30.61 8.28 0 16.93-7.32 1.8 1.08 2.76 3.72-8.28 9.24-21.01 9.24-29.29 0-29.29-34.45 0-16.33 8.64-25.33 8.65-9.12 20.17-9.12 12.6 0 18.13 8.76 5.52 8.76 5.52 22.81-1.2 0.96-2.52 1.08zm-21.37-27.85q-6.24 0-10.68 6.48-4.32 6.48-5.28 16.57h14.88q8.88 0 12.72-1.08 0-9.85-3-15.85-3-6.12-8.64-6.12zm51.84-16.8v17.16h16.92q0.24 1.44 0.24 2.16 0 1.08-0.24 2.52l-16.92 2.52v33.01q0 8.89 1.56 12.61 1.68 3.6 5.16 3.6 3.12 0 9.72-2.52 1.2 1.08 1.68 4.08-3.6 2.16-5.52 3.24-1.8 0.96-4.68 1.8-2.76 0.72-5.88 0.72-6 0-9.85-4.56-3.72-4.68-3.72-14.17v-39.25l-8.4-1.08q-0.24-1.2-0.24-2.04 0-0.96 0.24-2.64 3.36-0.6 5.76-2.04 2.52-1.56 4.2-4.2 1.68-2.76 2.52-4.8 0.97-2.16 2.29-6.12 1.08-0.37 2.64-0.37 1.44 0 2.52 0.37zm55.43-17.41q4.92 0 15.61-0.48 10.8-0.48 19.56-0.48 18.61 0 26.53 7.32 7.92 7.2 7.92 20.17 0 11.52-10.32 19.32-10.2 7.81-24.37 7.81-7.32 0-12.36-0.72v37.69l10.92 1.2q0.48 1.8 0 4.44-7.56-0.36-17.04-0.36-7.09 0-17.17 0.24-0.72-2.16 0-4.32l9.96-1.44q0.49-4.56 0.49-14.05v-70.7l-9.73-1.2q-0.48-1.8 0-4.44zm22.57 19.93v28.08q3.72 0.48 10.8 0.48 6.24 0 10.69-2.04 4.56-2.16 6.84-5.64 2.28-3.6 3.24-7.2 0.96-3.6 0.96-7.68 0-10.45-5.28-16.09-5.28-5.76-17.65-5.76-4.44 0-8.88 0.84-0.72 6.84-0.72 15.01zm73.84-0.12v69.98l9.72 1.8q0.48 1.92 0 4.8-7.56-0.36-15.48-0.36-5.53 0-15.61 0.24-0.72-2.28 0-4.68l9.48-1.32q0.48-6.6 0.48-15.25v-68.78l-9.84-1.2q-0.48-1.8 0-4.56 8.28-0.6 20.65-2.52 1.08 1.2 1.2 2.4-0.6 3.12-0.6 19.45zm54.12 39.85v-6.12q0-10.21-2.4-14.77-2.28-4.68-7.68-4.68-5.52 0-8.88 3.6-3.36 3.48-4.56 12.01-3.85 0.84-5.65 0.84-4.68 0-5.52-3.37 0-8.16 7.08-12.96 7.09-4.8 17.65-4.8 11.64 0 16.45 4.8 4.92 4.68 4.92 16.93v33.85q0 3 0.36 5.16l9.48 1.2q0.48 1.8 0 4.56-8.52 0.36-18.13 1.68-0.96-0.96-1.2-2.4l-0.6-8.28q-9.96 11.4-22.2 11.4-7.57 0-11.89-4.32-4.2-4.32-4.2-11.64 0-11.05 9.96-16.69 10.09-5.64 27.01-6zm-25.56 20.28q0 6.25 2.28 8.89 2.28 2.52 7.2 2.52 3.6 0 7.92-2.16 4.44-2.28 8.16-6.48v-18.73q-12.36 0.72-18.96 4.44-6.6 3.6-6.6 11.52zm101.33-4.92v-21.96q0-9.25-2.52-12.97-2.4-3.72-8.17-3.72-8.88 0-17.88 13.33v40.09l9.72 1.8q0.48 1.92 0 4.8-7.56-0.36-15.48-0.36-5.53 0-15.61 0.24-0.72-2.28 0-4.68l9.48-1.32q0.48-6.6 0.48-15.25v-32.89q0-2.4-0.36-4.44l-9.48-1.2q-0.48-1.8 0-4.56 8.28-0.6 20.65-2.52 1.08 1.2 1.2 2.4-0.6 3.12-0.6 10.68 9.48-13.08 21.36-13.08 18.61 0 18.61 17.64v42.74l9.72 1.8q0.48 1.92 0 4.8-7.56-0.36-15.48-0.36-5.52 0-15.61 0.24-0.72-2.28 0-4.68l9.49-1.32q0.48-6.6 0.48-15.25zm77 0v-21.96q0-9.25-2.52-12.97-2.4-3.72-8.17-3.72-8.88 0-17.88 13.33v40.09l9.72 1.8q0.48 1.92 0 4.8-7.56-0.36-15.48-0.36-5.53 0-15.61 0.24-0.72-2.28 0-4.68l9.48-1.32q0.48-6.6 0.48-15.25v-32.89q0-2.4-0.36-4.44l-9.48-1.2q-0.48-1.8 0-4.56 8.28-0.6 20.65-2.52 1.08 1.2 1.2 2.4-0.6 3.12-0.6 10.68 9.48-13.08 21.36-13.08 18.61 0 18.61 17.64v42.74l9.72 1.8q0.48 1.92 0 4.8-7.56-0.36-15.48-0.36-5.52 0-15.61 0.24-0.72-2.28 0-4.68l9.49-1.32q0.48-6.6 0.48-15.25zm77.8-12.96h-37.69q-1.08 30.61 18.36 30.61 8.28 0 16.93-7.32 1.8 1.08 2.76 3.72-8.28 9.24-21.01 9.24-29.29 0-29.29-34.45 0-16.33 8.64-25.33 8.65-9.12 20.17-9.12 12.6 0 18.13 8.76 5.52 8.76 5.52 22.81-1.2 0.96-2.52 1.08zm-21.37-27.85q-6.24 0-10.68 6.48-4.32 6.48-5.28 16.57h14.88q8.88 0 12.72-1.08 0-9.85-3-15.85-3-6.12-8.64-6.12zm54.6-2.4l-0.24 12.36q3-5.52 8.28-10.08 5.4-4.68 10.2-4.68 3.73 0 6.61 0.84 0.96 1.56 0.96 4.08 0 3.96-1.68 7.92-4.33-1.2-8.29-1.2-9.84 0-16.2 9.61l-0.24 21v18.13l13.32 1.8q0.48 1.92 0 4.8-7.56-0.36-17.28-0.36-7.33 0-17.41 0.24-0.72-2.28 0-4.68l9.48-1.32q0.48-6.6 0.48-15.25v-32.89q0-2.4-0.36-4.44l-9.48-1.2q-0.48-1.8 0-4.56 8.28-0.6 20.65-2.52 1.08 1.2 1.2 2.4z"/>
	<path id="Forma 1" fill-rule="evenodd" class="s0" d="m816.38 100.03c-7.49 0-13.55-6.05-13.55-13.55 0-7.49 6.06-13.55 13.55-13.55 7.5 0 13.55 6.06 13.55 13.55 0 7.5-6.05 13.55-13.55 13.55z"/>
</svg>